<?xml version="1.0" encoding="utf-8"?>
<!-- Generator: Adobe Illustrator 25.4.1, SVG Export Plug-In . SVG Version: 6.00 Build 0)  -->
<svg version="1.1" id="Layer_1" xmlns="http://www.w3.org/2000/svg" xmlns:xlink="http://www.w3.org/1999/xlink" x="0px" y="0px"
	 viewBox="0 0 109.9 122.9" style="enable-background:new 0 0 109.9 122.9;" xml:space="preserve">
<style type="text/css">
	.st0{fill-rule:evenodd;clip-rule:evenodd;fill:#14213D;}
</style>
<path class="st0" d="M26,20.1C40.8,1.9,57.8-8,70.5,8.2C85.9,9,92.1,33.4,79.8,43.7l-0.1,0.6c0.5-0.1,0.9-0.2,1.4-0.3
	c0.9-0.1,1.7,0.1,2.5,0.5c0.8,0.4,1.5,1.2,1.8,2.1c0.3,1.2,0.3,2.5-0.1,3.7c-0.6,1.8-1.3,3.8-1.9,5.5c-0.2,0.7-0.6,1.4-1.2,1.9
	c-0.8,0.5-1.7,0.8-2.6,0.6l-0.5-0.1c-0.1,6.1-3.1,8.9-7,12.5L71.9,71c3.6,9,10.6,11.3,17.5,12.4c23.6,4,20.3,16.6,20.3,28.7h-31
	c-8.3,11.6-24.4,14.2-36,5.9c-1.1-0.8-2.2-1.7-3.2-2.7l-0.2-0.2c-0.9-0.9-1.7-1.9-2.5-3H0C0,96.8-1.4,87,24.1,84.2
	c7.8-0.8,15.6-2.9,18.9-13.7c-3.5-3.1-6.4-5.9-7-12.2h-0.3c-0.8,0-1.6-0.2-2.2-0.6c-1.1-0.7-2-1.8-2.5-3c-0.6-1.4-0.9-2.9-1-4.5l0,0
	c0-0.5,0-1.4,0-2.3s0.1-1.5,0.1-1.9c0-0.1,0-0.2,0.1-0.4c0.8-2.2,2-2.9,3.6-2.9l-1.1-0.7C32.1,35,33.8,22.5,26,20.1L26,20.1z
	 M56.2,86c0-0.5,0.1-1,0.3-1.5c0.2-0.5,0.5-0.9,0.9-1.3c0.4-0.4,0.8-0.7,1.3-0.9c1-0.4,2-0.4,3,0c0.5,0.2,0.9,0.5,1.3,0.9
	c0.4,0.4,0.7,0.8,0.8,1.3c0.2,0.5,0.3,1,0.3,1.5c0,0.5-0.1,1-0.3,1.5c-0.2,0.5-0.5,0.9-0.9,1.3c-0.4,0.4-0.8,0.7-1.3,0.9
	c-0.5,0.2-1,0.3-1.5,0.3c-1.1,0-2.1-0.4-2.8-1.2c-0.4-0.4-0.7-0.8-0.9-1.3C56.3,87,56.2,86.5,56.2,86z M58.5,106.6l-0.1,0.6
	c-0.1,0.5,0,1,0.6,1c0.3,0,0.5-0.1,0.7-0.3c0.4-0.3,0.7-0.6,1-1c0.4-0.5,0.9-1.1,1.2-1.6c0.4-0.6,0.9-1.3,1.4-2.1
	c0.1-0.1,0.2-0.1,0.2-0.1l1.6,1.2c0.1,0.1,0.1,0.2,0,0.2c-0.7,1.2-1.4,2.3-2.2,3.3c-0.7,0.9-1.5,1.7-2.3,2.4l0,0
	c-2.1,1.7-6.1,2.9-8.4,0.8c-1.9-1.7-1.2-4.5-0.5-6.6l2.1-6c0.3-1.2,1.2-3.5-1-3.5h-2.2c-0.1,0-0.2-0.1-0.2-0.2l0.6-2.2
	c0-0.1,0.1-0.1,0.2-0.1l11.5-0.4c0.1,0,0.2,0.1,0.2,0.2c0,0,0,0,0,0v0.1L58.5,106.6L58.5,106.6z M57.8,75.3c12,0,21.8,9.8,21.8,21.8
	s-9.8,21.8-21.8,21.8c-12,0-21.8-9.7-21.8-21.8C36,85.1,45.7,75.3,57.8,75.3C57.8,75.3,57.8,75.3,57.8,75.3L57.8,75.3z"/>
</svg>


