<svg xmlns="http://www.w3.org/2000/svg" xmlns:xlink="http://www.w3.org/1999/xlink" width="500" height="750" viewBox="0 0 500 750">
  <defs>
    <clipPath id="clip-Artboard_1">
      <rect width="500" height="750"/>
    </clipPath>
  </defs>
  <g id="Artboard_1" data-name="Artboard – 1" clip-path="url(#clip-Artboard_1)">
    <rect width="500" height="750"/>
    <text id="Movie_Image_Not_Available" data-name="Movie Image Not Available" transform="translate(26 539)" fill="#fca311" font-size="62" font-family="ProximaNova-Regular, Proxima Nova"><tspan x="-174.468" y="57">Movie Image </tspan><tspan x="-180.637" y="132">Not Available</tspan></text>
    <g id="Layer_1" transform="translate(0.686 -5.292)">
      <g id="Group_1" data-name="Group 1">
        <path id="Path_3" data-name="Path 3" d="M52.9,265.1H239.1c3.3,12.9,9,18.5,17.7,17.8,8.8-.7,14.3-7,15.6-18H459.6C458,335,431,392.6,373.4,432.4c-73.1,50.4-150.2,52-226,6.3C80.2,398.1,50.6,325.1,52.9,265.1ZM370.8,275c-21.2,1.1-39.3,8.8-50.8,27.9-17.1,28.3-4,68.5,27.1,84.3,15.9,8.1,31.1,6.7,44.8-4.4a89.632,89.632,0,0,0,32.5-55.7c2.4-13.9-.9-26.5-11.7-36.4C400.9,280,386.8,275.6,370.8,275ZM254.5,449.4c9.6-1.5,18.8-2.2,27.6-4.5,20.9-5.4,33.2-21.6,32.8-42.2-.4-18.2-7-33.8-20.2-46.3-13-12.3-28.5-18.7-46.5-15.6-27.9,4.8-49.2,29.2-51.1,57.6-1.5,23.2,9.1,39.3,31.4,46C237,447,246,447.8,254.5,449.4ZM143.7,275.2c-14.6.2-26.1,2.9-36.6,9.5-14.1,8.8-21.9,21.5-20,38,3,26.6,15.6,48.3,37.9,63.5,11.9,8.1,25,8,38.1,2a57.351,57.351,0,0,0,22-17.6c14.7-19.3,19.7-40.5,9.1-63.2C183.9,285.4,164.7,276.5,143.7,275.2Zm91.2,11.7a14.26,14.26,0,0,0-14.1-14,14.051,14.051,0,1,0,14.1,14Zm70.2-.1A14.052,14.052,0,1,0,291,301.1,13.892,13.892,0,0,0,305.1,286.8Zm-49,34.5a13.955,13.955,0,0,0,13.9-14,14.056,14.056,0,1,0-28.1.4A13.941,13.941,0,0,0,256.1,321.3Z" fill="#fca311"/>
        <path id="Path_4" data-name="Path 4" d="M118.7,236.4c2.3-11.6,4.4-22.8,6.6-34.1,1.2-6,2.4-12.1,3.5-18.1,1.9-10.3,8.6-16.9,18.9-18.6q116.1-19.2,232.1-38.3c1.3-.2,2.6-.6,4.4-1-1.4-7.1-2.8-14-4.2-21-.7-3.4-1.4-6.9-2.1-10.3-1.5-6.7-3.8-8.4-10.6-7.5-14.2,2-28.3,4.1-42.5,6.2q-63.75,9.45-127.5,19c-2.9.4-4.2-.6-5.6-2.8-3.9-6.2-8-12.3-12.1-18.3-2.8-4.1-6.3-5.5-11.6-4.6-34.6,6-69.3,11.7-103.9,17.5-9.4,1.6-11,3.8-8.9,13,9,38.5,17.7,77,26.4,115.5.3,1.1.3,2.3.6,4a46.781,46.781,0,0,0-5.5.3c-3.4.5-4.5-1-5.2-4.2-4.7-21.3-9.6-42.5-14.5-63.8-3.8-16.9-7.7-33.8-11.5-50.7-3.1-13.9,2-21.1,16.2-23.5q54.9-9.15,109.8-18.6c6-1,10,1.7,13.3,5.9,4.2,5.4,8.1,11,11.9,16.7,1.7,2.6,3.6,3.2,6.7,2.8Q282,90.05,360.5,78.5c17.2-2.6,25.2,0,28.1,19.4,1.3,8.8,3.6,17.6,5.5,27,11.6-2,22.9-4,34.1-5.8a91.238,91.238,0,0,1,12.8-1.5c9.7-.2,14.7,6.1,12.7,15.6-5.6,27.1-11.3,54.1-17,81.2-1.6,7.5-3.2,15-4.8,22.6H422c7.5-36.4,15-72.6,22.7-109.8-5.2.5-9.5.8-13.6,1.5q-67.5,11.1-135,22.4c-47.3,7.8-94.6,15.7-141.9,23.4-12.5,2-14,3.2-16.4,15.5-2.6,13.1-5.2,26.1-7.8,39.2C128.3,237.7,128.4,237.7,118.7,236.4Z" fill="#fca311"/>
        <path id="Path_5" data-name="Path 5" d="M467,247.4v10.7H45V247.4Z" fill="#fca311"/>
      </g>
    </g>
  </g>
</svg>


