<?xml version="1.0" encoding="utf-8"?>
<!-- Generator: Adobe Illustrator 25.4.1, SVG Export Plug-In . SVG Version: 6.00 Build 0)  -->
<svg version="1.1" xmlns="http://www.w3.org/2000/svg" xmlns:xlink="http://www.w3.org/1999/xlink" x="0px" y="0px"
	 viewBox="0 0 512 512" style="enable-background:new 0 0 512 512;" xml:space="preserve">
<style type="text/css">
	.st0{display:none;fill:#FCA311;}
	.st1{fill:#FCA311;}
</style>
<g id="Layer_1">
	<g>
		<path class="st0" d="M-514,502c0-170.5,0-341.2,0-512c170.6,0,341.2,0,512,0c0,170.5,0,341.2,0,512C-172.6,502-343.3,502-514,502z
			 M-461.1,272.1c-2.3,60,27.2,133,94.5,173.5c75.8,45.6,153,44.1,226-6.3c57.6-39.7,84.6-97.4,86.2-167.5c-63.1,0-125.1,0-187.2,0
			c-1.3,11-6.8,17.3-15.6,18c-8.8,0.7-14.4-4.9-17.7-17.8C-336.8,272.1-398.8,272.1-461.1,272.1z M-391.3,169
			c9.7,1.3,9.7,1.3,11.3-7.3c2.6-13.1,5.2-26.1,7.8-39.2c2.4-12.3,3.9-13.5,16.4-15.5c47.3-7.7,94.6-15.6,141.9-23.4
			c45-7.4,90-14.9,135-22.4c4.2-0.7,8.4-0.9,13.6-1.5c-7.7,37.2-15.2,73.4-22.7,109.8c3.7,0,6.7,0,9.9,0c1.6-7.7,3.3-15.1,4.8-22.6
			c5.7-27,11.3-54.1,17-81.2c2-9.5-3-15.8-12.7-15.6c-4.3,0.1-8.6,0.8-12.8,1.5c-11.3,1.8-22.5,3.8-34.1,5.8c-2-9.5-4.2-18.2-5.5-27
			c-2.9-19.3-10.9-22-28.1-19.4c-52.4,7.9-104.8,15.6-157.1,23.4c-3.1,0.5-4.9-0.2-6.7-2.8c-3.8-5.7-7.8-11.3-11.9-16.7
			c-3.3-4.3-7.3-7-13.3-5.9c-36.6,6.3-73.2,12.4-109.8,18.6c-14.2,2.4-19.2,9.6-16.2,23.5c3.7,16.9,7.6,33.8,11.5,50.7
			c4.8,21.3,9.7,42.5,14.5,63.8c0.7,3.2,1.9,4.7,5.2,4.2c1.7-0.3,3.5-0.2,5.5-0.3c-0.2-1.7-0.3-2.9-0.6-4
			c-8.7-38.5-17.5-77-26.2-115.4c-2.1-9.2-0.6-11.5,8.9-13c34.7-5.8,69.3-11.5,103.9-17.5c5.3-0.9,8.8,0.5,11.6,4.6
			c4.1,6.1,8.2,12.2,12.1,18.3c1.4,2.2,2.6,3.2,5.6,2.8c42.5-6.4,85-12.7,127.5-19c14.2-2.1,28.3-4.3,42.5-6.2
			c6.8-1,9.1,0.8,10.6,7.5c0.8,3.4,1.4,6.9,2.1,10.3c1.4,6.9,2.8,13.9,4.2,21c-1.9,0.4-3.1,0.8-4.4,1
			c-77.4,12.8-154.8,25.5-232.1,38.3c-10.3,1.7-16.9,8.4-18.9,18.6c-1.1,6.1-2.4,12.1-3.5,18.1C-386.9,146.2-389.1,157.4-391.3,169z
			 M-460.2,185.2c134.9,0,269.4,0,404.1,0c0-2,0-3.6,0-5.3c-134.8,0-269.4,0-404.1,0C-460.2,181.9-460.2,183.5-460.2,185.2z
			 M-274.5,214.8c-2.9-1.3-5.1-3.1-6.6-2.7c-4.5,1.4-8.6,1.2-13.1,0.1c-1.3-0.3-3.9,0.9-4.3,2c-0.5,1.3,0.7,3.3,1.5,4.8
			c0.6,1.1,2.1,1.7,2.5,2.8c2.7,6.2-0.3,18.3-5.5,22.7c2.8,4.9,7.9,5.4,15.5,2.2c3.7,0.9,6.5,2.6,8.4,1.9c7.1-2.6,14.7,2.2,21.8-2.3
			c1.9-1.2,6.1,1.7,9.4,2.3c2,0.4,4.9,0.9,6.2-0.1c6.8-5.5,14.4,2.2,21-1.7c4.7,4.6,10.9,1.9,16.3,3c2.5,0.5,7.2-1.1,7.9-2.9
			c1.3-3.1-1.2-6.2-4.7-7.7c-0.6-0.2-1.6-0.5-1.7-0.9c-0.8-3.1-1.8-6.2-1.9-9.3c0-1.3,2.2-2.6,3.4-3.9c1.6,1.7,3.1,3.5,4.8,5.1
			c1.1,1,2.6,2.3,3.8,2.2c1-0.1,2.6-2.2,2.5-3.3c-0.3-5.9-0.9-11.8-1.6-17.7c-0.1-1.2-1.1-2.4-1.6-3.6c-0.6,0.3-1.2,0.7-1.9,1
			c-1.2,2.6-2.3,5.3-3.5,7.8c-3.6,0.9-6-0.4-6.3-4.2c-0.3-3.1-0.3-6.2,0.1-9.3c0.1-0.9,2-1.8,3.3-2.1c1.4-0.4,2.9-0.1,4.4,0
			c3.3,0.2,7-0.4,9.6,1.1c1.6,0.9,1.3,5,1.8,7.6c0.7,3.7,3.4,5.2,5.3,2.6c1.3-1.8,1.9-5,1.4-7.2c-0.7-3.1-2.8-6-4.4-8.9
			c-0.1-0.3-1.2-0.1-1.9,0c-5.7,0.2-11.4,0.5-17,0.7c-5,0.2-9.9,0.3-14.9,0.4c0,0.7,0,1.3-0.1,2c1.8,0.4,3.5,0.9,6.5,1.6
			c0,4.8,0.1,9.7,0,14.7c-0.1,3.9-0.4,7.7-1.1,11.5c-0.7,3.8-1.3,7.8-3,11.3c-1.5,3.1-4.7,0.8-7.3,0.7c-6.5-0.1-6.5,0.2-5.8-6.2
			c0.2-1.5,0.5-3,0.5-4.5c0-13.6-0.5-19.6-16.8-18.6c-1.7,0.1-3.3,0.4-5,0.6c-3.9,0.5-6.4,3.1-6.2,6.6c0.1,2.2,2.8,4.4,4.7,7
			c1.9-2.3,3.1-3.4,3.7-4.7c1.9-4.2,5.5-4.1,8.9-3.2c1.6,0.5,3.1,2.5,3.7,4.2c0.3,0.8-1.2,3-2.4,3.6c-2.1,1.1-4.6,1.9-6.9,1.9
			c-10.4,0.1-14.6,3.5-16.2,13.6c-0.1,0.6-0.2,1.1-0.4,2c-2.7-4.9-2.8-5.5-2.1-18.2c0.4-8.2-5-12.4-12.6-9.5
			C-273.2,214.2-274.2,214.7-274.5,214.8z M-56.1,259.4c-135,0-269.6,0-404.2,0c0,2,0,3.6,0,5.4c134.8,0,269.4,0,404.2,0
			C-56.1,262.9-56.1,261.3-56.1,259.4z M-343.7,228.6c-0.2-3-0.3-6.3-0.6-9.6c-0.8-7.1-7.5-10.8-12.7-9.9
			c-6.2,1.1-12.1,3.2-18.4,0.8c-1.1-0.4-3.4,1.5-4.5,2.9c-0.3,0.4,1.4,2.6,2.3,4c1.2,1.7,3.7,3.6,3.4,5.1c-1.1,6.8,1,14.4-4.8,20.3
			c-2.8,2.8-1.4,5.9,2.7,6c3.9,0.1,8-0.2,11.8-1c3.5-0.7,3.1-3.6,0.8-5c-4-2.5-4.5-6.2-4.7-10.2c-0.6-9.5,5-13.3,12.8-14.4
			c0.8-0.1,2.1,0.8,2.6,1.6c3.8,5.5,2.8,17.2-1.3,22.6c-0.9,1.1-0.3,5.1-0.1,5.1c4.4,0.6,8.8,1.4,13.2,1c2.7-0.2,4.8-3.7,2-5.4
			C-345.1,238.8-344.4,234.1-343.7,228.6z M-115.9,226.9c-0.5,2.6-0.4,7-2.1,10.5c-1.9,3.7-6.3,1.1-9.5,1.8c-2,0.4-3.6,3.1-5.3,4.8
			c1.8,1.2,3.4,3,5.4,3.3c3.2,0.5,6.6,0,9.9,0.1c6,0.2,11.9,0.7,17.9,0.5c2.5-0.1,5.9-0.5,5.1-4.8c-0.7-3.7-2.9-3.7-5.9-3.2
			c-6.6,1.1-8.5-0.7-8.4-7.4c0.2-8.9,0.9-17.9,0.6-26.8c-0.1-3.3-1.3-8.3-3.6-9.5c-5.4-2.7-11.8-3.2-17.6-0.2
			c-1,0.5-1.7,2.4-1.6,3.6c0.1,0.9,1.6,2.2,2.7,2.4c2.7,0.4,5.5-0.1,8.2,0.3c1.2,0.2,3.1,1.6,3.2,2.7
			C-116.4,211.7-116.2,218.5-115.9,226.9z M-397.8,249.5c0-0.1,0-0.3,0-0.4c3.2,0,6.4,0.3,9.5-0.1c1.3-0.2,3.4-1.8,3.4-2.9
			c0.1-1.5-1-3.5-2.2-4.6c-1.1-1-3.1-1.4-4.7-1.3c-5.5,0.4-6-2.2-5.9-7c0.2-6-0.4-12.3-2-18.1c-0.7-2.7-2-4,0.8-6.1
			c3-2.3,3.1-6,0.7-8.3c-1.6-1.6-5-2.3-7.3-1.9c-3.5,0.7-4.1,4.1-3.4,7.3c1.1,5.9,1.2,5.7-4.8,6.3c-1.8,0.2-4.6,2.1-4.7,3.4
			c-0.4,3.2,2.6,3.7,5.2,3.8c0.8,0,1.6-0.4,2.4-0.5c3.9-0.3,6.1,1.2,5.9,5.4c-0.2,2.8-0.5,5.6-0.7,8.4c-0.6,7.9-1.1,8.1-8.8,7.7
			c-2-0.1-4.1,2.4-6.1,3.7c1.7,1.3,3.3,3.5,5.2,3.8C-409.6,249-403.7,249.1-397.8,249.5z M-150.9,249.4c0-0.1,0-0.3,0-0.4
			c3.3,0,6.7,0.2,10-0.1c1.1-0.1,2.9-1.5,3-2.5c0.1-1.5-0.5-3.7-1.6-4.6c-1.4-1.1-3.7-1.9-5.5-1.7c-5.2,0.4-5.7-2.2-5.8-6.7
			c-0.2-6.7,1.4-13.9-2.9-20.2c-0.5-0.7,0.3-3,1.2-3.7c3.4-2.8,3.5-6,1.3-9.2c-2-3-5.1-3-8-1.5c-3.6,2-3.8,5.3-2.3,8.6
			c1.8,4-0.2,4.7-3.5,4.7c-1.2,0-2.5-0.4-3.4,0.1c-1.3,0.7-3.3,2-3.2,2.9c0.2,1.4,1.5,3.1,2.8,3.8c1.1,0.6,2.9,0.2,4.3,0.1
			c4.8-0.4,6.8,1.5,6.4,6.4c-0.2,2.5-0.6,4.9-0.7,7.4c-0.4,7.7-1.2,8.1-8.8,7.7c-2-0.1-4.1,2.4-6.1,3.7c1.7,1.4,3.3,3.7,5.2,4
			C-162.7,249.1-156.8,249.1-150.9,249.4z M-72.5,230.2c2.8-0.3,4.5-0.4,6.1-0.6c10.5-0.8,11.6-2.4,8-12c-2.2-6-13.2-10.3-19.6-8
			c-14.8,5.2-15,23.3-7.7,32.2c8.3,10,20.8,7.3,27.9-2.4c1-1.3,0.6-3.5,0.9-5.3c-2,0-4.2-0.4-6,0.2c-1.6,0.5-2.8,2.2-4.2,3.4
			c-2.8,2.1-5.5,3.6-8.9,0.9c-1.4-1.1-3.5-1.4-4.8-2.6c-1.4-1.3-2.2-3.2-3.2-4.9c2-0.8,3.9-2.1,5.9-2.1
			C-76,228.9-73.7,229.9-72.5,230.2z M-315.5,230.4c0-0.2,0.1-0.3,0.1-0.5c2.5-0.2,5.3,0.1,7.4-0.9c2.1-1,5-3.6,4.8-5.2
			c-0.5-3.4-1.9-7.3-4.3-9.6c-9.4-8.9-25.1-5.6-28.4,7c-1.3,4.8-0.6,9,0.1,13.6c0.8,5.4,3.7,8.6,8.2,11.1c6.7,3.9,15.1,2.7,21.4-4.4
			c1.6-1.8,3.3-5.9,2.5-7c-2.3-3.1-5.4-0.6-7.8,1c-1.1,0.7-1.8,2.4-2.9,2.6c-2.5,0.6-5.2,1.1-7.7,0.8c-1.8-0.2-3.8-1.4-5.2-2.8
			c-1.5-1.4-2.2-3.5-3.3-5.3c2.1-0.6,4.1-1.7,6.2-1.7C-321.6,229.1-318.6,229.9-315.5,230.4z M-438,216.3c0.1,0.3,0.4,0.7,0.3,0.9
			c-1,2.8-1,5.9,2.1,6.5c2.2,0.5,6.2-0.6,6.9-2.1c0.9-1.9-0.4-5.2-1.6-7.5c-0.7-1.4-2.9-2-4.4-3.1c-8.9-5.9-23.6,0.2-24.9,10.8
			c-0.5,4.4,0.2,9.1,1,13.6c1.2,7.6,6.9,11.8,13.5,12.9c6.6,1.1,12.7-2.5,16.9-7.8c1.1-1.4,0.2-4.5,0.2-6.8
			c-2.1,0.8-4.2,1.4-6.2,2.3c-0.5,0.2-0.6,1.2-1,1.7c-3.1,4-9.1,5.1-12.8,2.8c-6.5-4-7.5-11.4-4.9-17.5
			C-449.9,215.9-446.5,214.7-438,216.3z"/>
		<path class="st1" d="M52.9,265.1c62.3,0,124.2,0,186.2,0c3.3,12.9,9,18.5,17.7,17.8c8.8-0.7,14.3-7,15.6-18c62,0,124.1,0,187.2,0
			c-1.6,70.1-28.6,127.7-86.2,167.5c-73.1,50.4-150.2,52-226,6.3C80.2,398.1,50.6,325.1,52.9,265.1z M370.8,275
			c-21.2,1.1-39.3,8.8-50.8,27.9c-17.1,28.3-4,68.5,27.1,84.3c15.9,8.1,31.1,6.7,44.8-4.4c17.7-14.4,28.6-33.2,32.5-55.7
			c2.4-13.9-0.9-26.5-11.7-36.4C400.9,280,386.8,275.6,370.8,275z M254.5,449.4c9.6-1.5,18.8-2.2,27.6-4.5
			c20.9-5.4,33.2-21.6,32.8-42.2c-0.4-18.2-7-33.8-20.2-46.3c-13-12.3-28.5-18.7-46.5-15.6c-27.9,4.8-49.2,29.2-51.1,57.6
			c-1.5,23.2,9.1,39.3,31.4,46C237,447,246,447.8,254.5,449.4z M143.7,275.2c-14.6,0.2-26.1,2.9-36.6,9.5c-14.1,8.8-21.9,21.5-20,38
			c3,26.6,15.6,48.3,37.9,63.5c11.9,8.1,25,8,38.1,2c8.8-4,16.2-10,22-17.6c14.7-19.3,19.7-40.5,9.1-63.2
			C183.9,285.4,164.7,276.5,143.7,275.2z M234.9,286.9c0-7.6-6.4-13.9-14.1-14c-7.8,0-14.1,6.1-14.2,13.7c-0.1,8,6,14.3,14,14.4
			C228.5,301.2,234.9,294.8,234.9,286.9z M305.1,286.8c-0.1-7.8-6.2-13.9-14-13.9c-8,0-14.2,6.3-14.1,14.3c0.1,7.8,6.2,13.8,14,13.9
			C299,301.1,305.2,294.8,305.1,286.8z M256.1,321.3c7.7-0.1,14-6.3,13.9-14c0-8-6.4-14.2-14.3-14.2c-7.8,0-14,6.6-13.8,14.6
			C242.1,315.4,248.3,321.3,256.1,321.3z"/>
		<path class="st1" d="M118.7,236.4c2.3-11.6,4.4-22.8,6.6-34.1c1.2-6,2.4-12.1,3.5-18.1c1.9-10.3,8.6-16.9,18.9-18.6
			c77.4-12.8,154.8-25.5,232.1-38.3c1.3-0.2,2.6-0.6,4.4-1c-1.4-7.1-2.8-14-4.2-21c-0.7-3.4-1.4-6.9-2.1-10.3
			c-1.5-6.7-3.8-8.4-10.6-7.5c-14.2,2-28.3,4.1-42.5,6.2c-42.5,6.3-85,12.6-127.5,19c-2.9,0.4-4.2-0.6-5.6-2.8
			c-3.9-6.2-8-12.3-12.1-18.3c-2.8-4.1-6.3-5.5-11.6-4.6c-34.6,6-69.3,11.7-103.9,17.5c-9.4,1.6-11,3.8-8.9,13
			C64.2,156,72.9,194.5,81.6,233c0.3,1.1,0.3,2.3,0.6,4c-2,0.1-3.8,0-5.5,0.3c-3.4,0.5-4.5-1-5.2-4.2c-4.7-21.3-9.6-42.5-14.5-63.8
			c-3.8-16.9-7.7-33.8-11.5-50.7c-3.1-13.9,2-21.1,16.2-23.5c36.6-6.1,73.2-12.3,109.8-18.6c6-1,10,1.7,13.3,5.9
			c4.2,5.4,8.1,11,11.9,16.7c1.7,2.6,3.6,3.2,6.7,2.8c52.4-7.9,104.7-15.6,157.1-23.4c17.2-2.6,25.2,0,28.1,19.4
			c1.3,8.8,3.6,17.6,5.5,27c11.6-2,22.9-4,34.1-5.8c4.2-0.7,8.5-1.4,12.8-1.5c9.7-0.2,14.7,6.1,12.7,15.6
			c-5.6,27.1-11.3,54.1-17,81.2c-1.6,7.5-3.2,15-4.8,22.6c-3.2,0-6.1,0-9.9,0c7.5-36.4,15-72.6,22.7-109.8
			c-5.2,0.5-9.5,0.8-13.6,1.5c-45,7.4-90,14.9-135,22.4c-47.3,7.8-94.6,15.7-141.9,23.4c-12.5,2-14,3.2-16.4,15.5
			c-2.6,13.1-5.2,26.1-7.8,39.2C128.3,237.7,128.4,237.7,118.7,236.4z"/>
		<path class="st1" d="M467,247.4c0,3.7,0,6.9,0,10.7c-140.7,0-281.2,0-422,0c0-3.6,0-6.8,0-10.7C185.5,247.4,326,247.4,467,247.4z"
			/>
	</g>
</g>
<g id="Layer_2">
</g>
</svg>
