<svg xmlns="http://www.w3.org/2000/svg" xmlns:xlink="http://www.w3.org/1999/xlink" width="95.5" height="86.685" viewBox="0 0 95.5 86.685">
  <defs>
    <filter id="solidHeart" x="0" y="0" width="95.5" height="86.685" filterUnits="userSpaceOnUse">
      <feOffset dy="3" input="SourceAlpha"/>
      <feGaussianBlur stdDeviation="3" result="blur"/>
      <feFlood/>
      <feComposite operator="in" in2="blur"/>
    </filter>
    <filter id="solidHeart-2" x="0" y="0" width="95.5" height="86.685" filterUnits="userSpaceOnUse">
      <feOffset dy="3" input="SourceAlpha"/>
      <feGaussianBlur stdDeviation="3" result="blur-2"/>
      <feFlood flood-color="#14213d" result="color"/>
      <feComposite operator="out" in="SourceGraphic" in2="blur-2"/>
      <feComposite operator="in" in="color"/>
      <feComposite operator="in" in2="SourceGraphic"/>
    </filter>
  </defs>
  <g id="Component_10" data-name="Component 10" transform="translate(9 6)">
    <g data-type="innerShadowGroup">
      <g transform="matrix(1, 0, 0, 1, -9, -6)" filter="url(#solidHeart)">
        <g id="solidHeart-3" data-name="solidHeart" transform="translate(9 4.45)" fill="#fca311">
          <path d="M 38.75 69.02764892578125 C 29.17057991027832 62.53471755981445 21.25793647766113 55.98923492431641 15.22375965118408 49.56565856933594 C 9.721893310546875 43.70876312255859 5.753053188323975 37.92967224121094 3.427493333816528 32.38891220092773 C 1.638826608657837 28.12589836120605 0.831933319568634 24.07264518737793 1.029279947280884 20.34184455871582 C 1.206786632537842 16.98637771606445 2.188693284988403 13.94353866577148 3.947760105133057 11.29784488677979 C 5.74998664855957 8.587244987487793 8.366720199584961 6.345858097076416 11.51510620117188 4.815965175628662 C 14.56693363189697 3.333004951477051 18.03182601928711 2.549151659011841 21.53522682189941 2.549151659011841 C 24.64354705810547 2.549151659011841 27.73569297790527 3.180498361587524 30.47742652893066 4.374938488006592 C 33.43035888671875 5.661405086517334 35.95430755615234 7.556098461151123 37.97914505004883 10.00640487670898 L 38.75 10.93924522399902 L 39.52085494995117 10.00640487670898 C 41.54529190063477 7.556591510772705 44.06927871704102 5.662018299102783 47.02272033691406 4.375324726104736 C 49.76497268676758 3.180631637573242 52.85709381103516 2.549151659011841 55.96477508544922 2.549151659011841 C 59.46858596801758 2.549151659011841 62.93374633789062 3.332924842834473 65.98564147949219 4.815738201141357 C 69.13413238525391 6.345484733581543 71.75089263916016 8.586738586425781 73.55302429199219 11.29720497131348 C 75.31201171875 13.94277858734131 76.29381561279297 16.98559188842773 76.47118377685547 20.34112548828125 C 76.66838836669922 24.07199096679688 75.86134338378906 28.12549781799316 74.07246398925781 32.38901901245117 C 71.74693298339844 37.92967224121094 67.77809143066406 43.70876312255859 62.27624130249023 49.56565856933594 C 56.24205017089844 55.98923492431641 48.32941818237305 62.53471755981445 38.75 69.02764892578125 Z" stroke="none"/>
          <path d="M 38.75 67.81821441650391 C 48.01593399047852 61.49240493774414 55.68177795410156 55.12511825561523 61.54738616943359 48.8809928894043 C 66.96733093261719 43.11129379272461 70.87115478515625 37.43235015869141 73.15034484863281 32.00212097167969 C 74.88045501708984 27.87866401672363 75.66177368164062 23.97309303283691 75.47258758544922 20.3939208984375 C 75.30480194091797 17.21960639953613 74.3787841796875 14.34532070159912 72.72028350830078 11.85087871551514 C 71.01678466796875 9.288763999938965 68.53687286376953 7.167078495025635 65.54861450195312 5.715192794799805 C 62.63209915161133 4.298149585723877 59.31805801391602 3.549149751663208 55.96475601196289 3.549149751663208 C 52.99340057373047 3.549149751663208 50.03939819335938 4.151849746704102 47.42211532592773 5.292092800140381 C 44.61410140991211 6.515435218811035 42.2150993347168 8.315863609313965 40.29171371459961 10.64340686798096 L 38.75 12.50907802581787 L 37.20828628540039 10.64340686798096 C 35.28450012207031 8.315378189086914 32.88554382324219 6.51482105255127 30.07802772521973 5.291721343994141 C 27.4612865447998 4.151721000671387 24.50722885131836 3.549149751663208 21.53524208068848 3.549149751663208 C 18.18237113952637 3.549149751663208 14.8685998916626 4.298221111297607 11.95217132568359 5.715392589569092 C 8.964014053344727 7.167421340942383 6.484085559844971 9.289263725280762 4.780499935150146 11.85150718688965 C 3.121914386749268 14.34607791900635 2.195800065994263 17.22042083740234 2.027885675430298 20.39467811584473 C 1.838571429252625 23.97376441955566 2.619728565216064 27.87907791137695 4.349556922912598 32.00189208984375 C 6.628842830657959 37.43235015869141 10.53267097473145 43.11129379272461 15.95261383056641 48.8809928894043 C 21.81822204589844 55.12511825561523 29.48406791687012 61.49240493774414 38.75 67.81821441650391 M 38.75 70.234375 C 17.91437149047852 56.21087646484375 6.986914157867432 43.45325088500977 2.505414247512817 32.77592086791992 C -9.500313758850098 4.162022590637207 24.79163360595703 -7.522024631500244 38.75 9.369392395019531 C 52.70837783813477 -7.522027492523193 87.00031280517578 4.162025928497314 74.99458312988281 32.77592086791992 C 70.51308441162109 43.45325088500977 59.58562850952148 56.21087646484375 38.75 70.234375 Z" stroke="none" fill="#000"/>
        </g>
      </g>
      <g id="solidHeart-4" data-name="solidHeart" transform="translate(0 -1.549)" fill="#fca311">
        <path d="M 38.75 69.02764892578125 C 29.17057991027832 62.53471755981445 21.25793647766113 55.98923492431641 15.22375965118408 49.56565856933594 C 9.721893310546875 43.70876312255859 5.753053188323975 37.92967224121094 3.427493333816528 32.38891220092773 C 1.638826608657837 28.12589836120605 0.831933319568634 24.07264518737793 1.029279947280884 20.34184455871582 C 1.206786632537842 16.98637771606445 2.188693284988403 13.94353866577148 3.947760105133057 11.29784488677979 C 5.74998664855957 8.587244987487793 8.366720199584961 6.345858097076416 11.51510620117188 4.815965175628662 C 14.56693363189697 3.333004951477051 18.03182601928711 2.549151659011841 21.53522682189941 2.549151659011841 C 24.64354705810547 2.549151659011841 27.73569297790527 3.180498361587524 30.47742652893066 4.374938488006592 C 33.43035888671875 5.661405086517334 35.95430755615234 7.556098461151123 37.97914505004883 10.00640487670898 L 38.75 10.93924522399902 L 39.52085494995117 10.00640487670898 C 41.54529190063477 7.556591510772705 44.06927871704102 5.662018299102783 47.02272033691406 4.375324726104736 C 49.76497268676758 3.180631637573242 52.85709381103516 2.549151659011841 55.96477508544922 2.549151659011841 C 59.46858596801758 2.549151659011841 62.93374633789062 3.332924842834473 65.98564147949219 4.815738201141357 C 69.13413238525391 6.345484733581543 71.75089263916016 8.586738586425781 73.55302429199219 11.29720497131348 C 75.31201171875 13.94277858734131 76.29381561279297 16.98559188842773 76.47118377685547 20.34112548828125 C 76.66838836669922 24.07199096679688 75.86134338378906 28.12549781799316 74.07246398925781 32.38901901245117 C 71.74693298339844 37.92967224121094 67.77809143066406 43.70876312255859 62.27624130249023 49.56565856933594 C 56.24205017089844 55.98923492431641 48.32941818237305 62.53471755981445 38.75 69.02764892578125 Z" stroke="none"/>
        <path d="M 38.75 67.81821441650391 C 48.01593399047852 61.49240493774414 55.68177795410156 55.12511825561523 61.54738616943359 48.8809928894043 C 66.96733093261719 43.11129379272461 70.87115478515625 37.43235015869141 73.15034484863281 32.00212097167969 C 74.88045501708984 27.87866401672363 75.66177368164062 23.97309303283691 75.47258758544922 20.3939208984375 C 75.30480194091797 17.21960639953613 74.3787841796875 14.34532070159912 72.72028350830078 11.85087871551514 C 71.01678466796875 9.288763999938965 68.53687286376953 7.167078495025635 65.54861450195312 5.715192794799805 C 62.63209915161133 4.298149585723877 59.31805801391602 3.549149751663208 55.96475601196289 3.549149751663208 C 52.99340057373047 3.549149751663208 50.03939819335938 4.151849746704102 47.42211532592773 5.292092800140381 C 44.61410140991211 6.515435218811035 42.2150993347168 8.315863609313965 40.29171371459961 10.64340686798096 L 38.75 12.50907802581787 L 37.20828628540039 10.64340686798096 C 35.28450012207031 8.315378189086914 32.88554382324219 6.51482105255127 30.07802772521973 5.291721343994141 C 27.4612865447998 4.151721000671387 24.50722885131836 3.549149751663208 21.53524208068848 3.549149751663208 C 18.18237113952637 3.549149751663208 14.8685998916626 4.298221111297607 11.95217132568359 5.715392589569092 C 8.964014053344727 7.167421340942383 6.484085559844971 9.289263725280762 4.780499935150146 11.85150718688965 C 3.121914386749268 14.34607791900635 2.195800065994263 17.22042083740234 2.027885675430298 20.39467811584473 C 1.838571429252625 23.97376441955566 2.619728565216064 27.87907791137695 4.349556922912598 32.00189208984375 C 6.628842830657959 37.43235015869141 10.53267097473145 43.11129379272461 15.95261383056641 48.8809928894043 C 21.81822204589844 55.12511825561523 29.48406791687012 61.49240493774414 38.75 67.81821441650391 M 38.75 70.234375 C 17.91437149047852 56.21087646484375 6.986914157867432 43.45325088500977 2.505414247512817 32.77592086791992 C -9.500313758850098 4.162022590637207 24.79163360595703 -7.522024631500244 38.75 9.369392395019531 C 52.70837783813477 -7.522027492523193 87.00031280517578 4.162025928497314 74.99458312988281 32.77592086791992 C 70.51308441162109 43.45325088500977 59.58562850952148 56.21087646484375 38.75 70.234375 Z" stroke="none"/>
      </g>
      <g transform="matrix(1, 0, 0, 1, -9, -6)" filter="url(#solidHeart-2)">
        <g id="solidHeart-5" data-name="solidHeart" transform="translate(9 4.45)" fill="#fff">
          <path d="M 38.75 69.02764892578125 C 29.17057991027832 62.53471755981445 21.25793647766113 55.98923492431641 15.22375965118408 49.56565856933594 C 9.721893310546875 43.70876312255859 5.753053188323975 37.92967224121094 3.427493333816528 32.38891220092773 C 1.638826608657837 28.12589836120605 0.831933319568634 24.07264518737793 1.029279947280884 20.34184455871582 C 1.206786632537842 16.98637771606445 2.188693284988403 13.94353866577148 3.947760105133057 11.29784488677979 C 5.74998664855957 8.587244987487793 8.366720199584961 6.345858097076416 11.51510620117188 4.815965175628662 C 14.56693363189697 3.333004951477051 18.03182601928711 2.549151659011841 21.53522682189941 2.549151659011841 C 24.64354705810547 2.549151659011841 27.73569297790527 3.180498361587524 30.47742652893066 4.374938488006592 C 33.43035888671875 5.661405086517334 35.95430755615234 7.556098461151123 37.97914505004883 10.00640487670898 L 38.75 10.93924522399902 L 39.52085494995117 10.00640487670898 C 41.54529190063477 7.556591510772705 44.06927871704102 5.662018299102783 47.02272033691406 4.375324726104736 C 49.76497268676758 3.180631637573242 52.85709381103516 2.549151659011841 55.96477508544922 2.549151659011841 C 59.46858596801758 2.549151659011841 62.93374633789062 3.332924842834473 65.98564147949219 4.815738201141357 C 69.13413238525391 6.345484733581543 71.75089263916016 8.586738586425781 73.55302429199219 11.29720497131348 C 75.31201171875 13.94277858734131 76.29381561279297 16.98559188842773 76.47118377685547 20.34112548828125 C 76.66838836669922 24.07199096679688 75.86134338378906 28.12549781799316 74.07246398925781 32.38901901245117 C 71.74693298339844 37.92967224121094 67.77809143066406 43.70876312255859 62.27624130249023 49.56565856933594 C 56.24205017089844 55.98923492431641 48.32941818237305 62.53471755981445 38.75 69.02764892578125 Z" stroke="none"/>
          <path d="M 38.75 67.81821441650391 C 48.01593399047852 61.49240493774414 55.68177795410156 55.12511825561523 61.54738616943359 48.8809928894043 C 66.96733093261719 43.11129379272461 70.87115478515625 37.43235015869141 73.15034484863281 32.00212097167969 C 74.88045501708984 27.87866401672363 75.66177368164062 23.97309303283691 75.47258758544922 20.3939208984375 C 75.30480194091797 17.21960639953613 74.3787841796875 14.34532070159912 72.72028350830078 11.85087871551514 C 71.01678466796875 9.288763999938965 68.53687286376953 7.167078495025635 65.54861450195312 5.715192794799805 C 62.63209915161133 4.298149585723877 59.31805801391602 3.549149751663208 55.96475601196289 3.549149751663208 C 52.99340057373047 3.549149751663208 50.03939819335938 4.151849746704102 47.42211532592773 5.292092800140381 C 44.61410140991211 6.515435218811035 42.2150993347168 8.315863609313965 40.29171371459961 10.64340686798096 L 38.75 12.50907802581787 L 37.20828628540039 10.64340686798096 C 35.28450012207031 8.315378189086914 32.88554382324219 6.51482105255127 30.07802772521973 5.291721343994141 C 27.4612865447998 4.151721000671387 24.50722885131836 3.549149751663208 21.53524208068848 3.549149751663208 C 18.18237113952637 3.549149751663208 14.8685998916626 4.298221111297607 11.95217132568359 5.715392589569092 C 8.964014053344727 7.167421340942383 6.484085559844971 9.289263725280762 4.780499935150146 11.85150718688965 C 3.121914386749268 14.34607791900635 2.195800065994263 17.22042083740234 2.027885675430298 20.39467811584473 C 1.838571429252625 23.97376441955566 2.619728565216064 27.87907791137695 4.349556922912598 32.00189208984375 C 6.628842830657959 37.43235015869141 10.53267097473145 43.11129379272461 15.95261383056641 48.8809928894043 C 21.81822204589844 55.12511825561523 29.48406791687012 61.49240493774414 38.75 67.81821441650391 M 38.75 70.234375 C 17.91437149047852 56.21087646484375 6.986914157867432 43.45325088500977 2.505414247512817 32.77592086791992 C -9.500313758850098 4.162022590637207 24.79163360595703 -7.522024631500244 38.75 9.369392395019531 C 52.70837783813477 -7.522027492523193 87.00031280517578 4.162025928497314 74.99458312988281 32.77592086791992 C 70.51308441162109 43.45325088500977 59.58562850952148 56.21087646484375 38.75 70.234375 Z" stroke="none"/>
        </g>
      </g>
      <g id="solidHeart-6" data-name="solidHeart" transform="translate(0 -1.549)" fill="none">
        <path d="M 38.75 69.02764892578125 C 29.17057991027832 62.53471755981445 21.25793647766113 55.98923492431641 15.22375965118408 49.56565856933594 C 9.721893310546875 43.70876312255859 5.753053188323975 37.92967224121094 3.427493333816528 32.38891220092773 C 1.638826608657837 28.12589836120605 0.831933319568634 24.07264518737793 1.029279947280884 20.34184455871582 C 1.206786632537842 16.98637771606445 2.188693284988403 13.94353866577148 3.947760105133057 11.29784488677979 C 5.74998664855957 8.587244987487793 8.366720199584961 6.345858097076416 11.51510620117188 4.815965175628662 C 14.56693363189697 3.333004951477051 18.03182601928711 2.549151659011841 21.53522682189941 2.549151659011841 C 24.64354705810547 2.549151659011841 27.73569297790527 3.180498361587524 30.47742652893066 4.374938488006592 C 33.43035888671875 5.661405086517334 35.95430755615234 7.556098461151123 37.97914505004883 10.00640487670898 L 38.75 10.93924522399902 L 39.52085494995117 10.00640487670898 C 41.54529190063477 7.556591510772705 44.06927871704102 5.662018299102783 47.02272033691406 4.375324726104736 C 49.76497268676758 3.180631637573242 52.85709381103516 2.549151659011841 55.96477508544922 2.549151659011841 C 59.46858596801758 2.549151659011841 62.93374633789062 3.332924842834473 65.98564147949219 4.815738201141357 C 69.13413238525391 6.345484733581543 71.75089263916016 8.586738586425781 73.55302429199219 11.29720497131348 C 75.31201171875 13.94277858734131 76.29381561279297 16.98559188842773 76.47118377685547 20.34112548828125 C 76.66838836669922 24.07199096679688 75.86134338378906 28.12549781799316 74.07246398925781 32.38901901245117 C 71.74693298339844 37.92967224121094 67.77809143066406 43.70876312255859 62.27624130249023 49.56565856933594 C 56.24205017089844 55.98923492431641 48.32941818237305 62.53471755981445 38.75 69.02764892578125 Z" stroke="none"/>
        <path d="M 38.75 67.81821441650391 C 48.01593399047852 61.49240493774414 55.68177795410156 55.12511825561523 61.54738616943359 48.8809928894043 C 66.96733093261719 43.11129379272461 70.87115478515625 37.43235015869141 73.15034484863281 32.00212097167969 C 74.88045501708984 27.87866401672363 75.66177368164062 23.97309303283691 75.47258758544922 20.3939208984375 C 75.30480194091797 17.21960639953613 74.3787841796875 14.34532070159912 72.72028350830078 11.85087871551514 C 71.01678466796875 9.288763999938965 68.53687286376953 7.167078495025635 65.54861450195312 5.715192794799805 C 62.63209915161133 4.298149585723877 59.31805801391602 3.549149751663208 55.96475601196289 3.549149751663208 C 52.99340057373047 3.549149751663208 50.03939819335938 4.151849746704102 47.42211532592773 5.292092800140381 C 44.61410140991211 6.515435218811035 42.2150993347168 8.315863609313965 40.29171371459961 10.64340686798096 L 38.75 12.50907802581787 L 37.20828628540039 10.64340686798096 C 35.28450012207031 8.315378189086914 32.88554382324219 6.51482105255127 30.07802772521973 5.291721343994141 C 27.4612865447998 4.151721000671387 24.50722885131836 3.549149751663208 21.53524208068848 3.549149751663208 C 18.18237113952637 3.549149751663208 14.8685998916626 4.298221111297607 11.95217132568359 5.715392589569092 C 8.964014053344727 7.167421340942383 6.484085559844971 9.289263725280762 4.780499935150146 11.85150718688965 C 3.121914386749268 14.34607791900635 2.195800065994263 17.22042083740234 2.027885675430298 20.39467811584473 C 1.838571429252625 23.97376441955566 2.619728565216064 27.87907791137695 4.349556922912598 32.00189208984375 C 6.628842830657959 37.43235015869141 10.53267097473145 43.11129379272461 15.95261383056641 48.8809928894043 C 21.81822204589844 55.12511825561523 29.48406791687012 61.49240493774414 38.75 67.81821441650391 M 38.75 70.234375 C 17.91437149047852 56.21087646484375 6.986914157867432 43.45325088500977 2.505414247512817 32.77592086791992 C -9.500313758850098 4.162022590637207 24.79163360595703 -7.522024631500244 38.75 9.369392395019531 C 52.70837783813477 -7.522027492523193 87.00031280517578 4.162025928497314 74.99458312988281 32.77592086791992 C 70.51308441162109 43.45325088500977 59.58562850952148 56.21087646484375 38.75 70.234375 Z" stroke="none" fill="#000"/>
      </g>
    </g>
  </g>
</svg>
