<?xml version="1.0" encoding="utf-8"?>
<!-- Generator: Adobe Illustrator 25.2.3, SVG Export Plug-In . SVG Version: 6.00 Build 0)  -->
<svg version="1.1" id="Layer_1" xmlns="http://www.w3.org/2000/svg" xmlns:xlink="http://www.w3.org/1999/xlink" x="0px" y="0px"
	 viewBox="0 0 122.9 114" style="enable-background:new 0 0 122.9 114;" xml:space="preserve">
<style type="text/css">
	.st0{fill-rule:evenodd;clip-rule:evenodd;fill:#14213D;}
</style>
<path class="st0" d="M18.7,73.4l40.5-40.5c2.1-2.1,2.4-2.2,4.6,0l40.4,40.5V114h-30V86.6c0-1.9-1.5-3.4-3.4-3.4H52.1
	c-1.9,0-3.4,1.5-3.4,3.4V114h-30L18.7,73.4L18.7,73.4z M60.2,0.9L0,57.4l14.8,7.8l42.5-42.9c3.6-3.7,3.7-3.7,7.3-0.2l43.4,43
	l14.8-7.8L62.6,0.8C61.5-0.2,61.4-0.3,60.2,0.9z"/>
</svg>


